<svg height="480pt" viewBox="0 0 480 480" width="480pt" xmlns="http://www.w3.org/2000/svg"><path d="m240 0c-132.546875 0-240 107.453125-240 240s107.453125 240 240 240 240-107.453125 240-240c-.148438-132.484375-107.515625-239.851562-240-240zm0 464c-123.710938 0-224-100.289062-224-224s100.289062-224 224-224 224 100.289062 224 224c-.140625 123.652344-100.347656 223.859375-224 224zm0 0"/><path d="m256 168h-136c-4.207031-.011719-7.703125 3.238281-8 7.433594l-1.167969 16.566406h-22.832031v16h21.695312l-1.144531 16h-44.550781v16h43.40625l-1.140625 16h-18.265625v16h17.121094l-1.121094 15.433594c-.15625 2.214844.613281 4.402344 2.132812 6.027344 1.515626 1.625 3.644532 2.542968 5.867188 2.539062h25.136719c-.722657 2.605469-1.101563 5.296875-1.136719 8 0 17.671875 14.328125 32 32 32s32-14.328125 32-32c-.035156-2.703125-.414062-5.394531-1.136719-8h57.136719c4.417969 0 8-3.582031 8-8v-112c0-4.417969-3.582031-8-8-8zm-88 152c-8.835938 0-16-7.164062-16-16s7.164062-16 16-16 16 7.164062 16 16-7.164062 16-16 16zm80-40h-59.054688c-11.925781-10.667969-29.964843-10.667969-41.890624 0h-26.460938l.574219-8h14.832031v-16h-13.695312l1.144531-16h28.550781v-16h-27.40625l1.140625-16h18.265625v-16h-17.121094l.570313-8h120.550781zm0 0"/><path d="m368 216h-17.753906l-6.484375-25.9375c-.890625-3.5625-4.089844-6.0625-7.761719-6.0625h-56c-4.417969 0-8 3.582031-8 8v96c0 4.417969 3.582031 8 8 8h9.136719c-.722657 2.605469-1.101563 5.296875-1.136719 8 0 17.671875 14.328125 32 32 32s32-14.328125 32-32c-.035156-2.703125-.414062-5.394531-1.136719-8h17.136719c4.417969 0 8-3.582031 8-8v-64c0-4.417969-3.582031-8-8-8zm-48 104c-8.835938 0-16-7.164062-16-16s7.164062-16 16-16 16 7.164062 16 16-7.164062 16-16 16zm40-40h-19.054688c-11.925781-10.667969-29.964843-10.667969-41.890624 0h-11.054688v-80h41.753906l6.484375 25.9375c.890625 3.5625 4.089844 6.0625 7.761719 6.0625h16zm0 0"/><path d="m200 200h24v16h-24zm0 0"/><path d="m176 240h16v16h-16zm0 0"/></svg>